<?xml version="1.0" encoding="utf-8"?>
<!-- Generator: Adobe Illustrator 16.0.0, SVG Export Plug-In . SVG Version: 6.00 Build 0)  -->
<!DOCTYPE svg PUBLIC "-//W3C//DTD SVG 1.1//EN" "http://www.w3.org/Graphics/SVG/1.1/DTD/svg11.dtd">
<svg version="1.1" id="Layer_1" xmlns="http://www.w3.org/2000/svg" xmlns:xlink="http://www.w3.org/1999/xlink" x="0px" y="0px"
	 width="725.915px" height="183.114px" viewBox="0 0 725.915 183.114" enable-background="new 0 0 725.915 183.114"
	 xml:space="preserve">
<g>
	<g>
		<path fill="#F68116" d="M359.128,93.667h-39.635c-1.014,0-2.106-0.12-3.274-0.359c-1.169-0.239-2.324-0.613-3.465-1.12
			c-1.141-0.508-2.232-1.161-3.275-1.964c-1.041-0.804-1.964-1.775-2.768-2.916c-0.802-1.142-1.443-2.465-1.922-3.972
			c-0.479-1.508-0.719-3.205-0.719-5.092V48.498c0-1.014,0.12-2.105,0.359-3.275c0.238-1.169,0.613-2.323,1.121-3.464
			c0.506-1.142,1.167-2.232,1.985-3.275c0.816-1.042,1.796-1.965,2.937-2.768c1.141-0.802,2.457-1.443,3.95-1.923
			c1.493-0.479,3.184-0.718,5.07-0.718h39.635v10.986h-39.635c-1.437,0-2.535,0.38-3.296,1.142c-0.76,0.76-1.141,1.887-1.141,3.38
			v29.662c0,1.408,0.387,2.5,1.162,3.275c0.775,0.773,1.865,1.161,3.274,1.161h39.635V93.667z"/>
		<path fill="#F68116" d="M432.227,69.16c0,3.689-0.633,7.084-1.9,10.184c-1.268,3.099-3.028,5.774-5.281,8.027
			c-2.255,2.255-4.924,4.008-8.008,5.262c-3.084,1.253-6.443,1.88-10.078,1.88h-14.873c-3.633,0-7-0.627-10.099-1.88
			c-3.099-1.254-5.774-3.007-8.028-5.262c-2.254-2.253-4.021-4.929-5.303-8.027c-1.283-3.1-1.922-6.494-1.922-10.184V57.583
			c0-3.663,0.639-7.051,1.922-10.163c1.281-3.112,3.049-5.788,5.303-8.027c2.254-2.24,4.93-3.993,8.028-5.262
			c3.099-1.267,6.466-1.9,10.099-1.9h14.873c3.635,0,6.994,0.634,10.078,1.9c3.084,1.269,5.753,3.021,8.008,5.262
			c2.253,2.239,4.014,4.915,5.281,8.027s1.9,6.5,1.9,10.163V69.16z M421.241,57.583c0-2.169-0.345-4.135-1.034-5.895
			c-0.691-1.762-1.664-3.268-2.916-4.521c-1.254-1.253-2.762-2.225-4.521-2.916c-1.761-0.689-3.697-1.035-5.811-1.035h-14.873
			c-2.141,0-4.092,0.346-5.852,1.035c-1.761,0.691-3.275,1.663-4.543,2.916c-1.268,1.254-2.246,2.76-2.938,4.521
			c-0.689,1.76-1.033,3.726-1.033,5.895V69.16c0,2.169,0.344,4.134,1.033,5.895c0.691,1.761,1.67,3.268,2.938,4.521
			c1.268,1.253,2.782,2.225,4.543,2.916c1.76,0.689,3.711,1.034,5.852,1.034h14.789c2.141,0,4.092-0.345,5.853-1.034
			c1.761-0.691,3.274-1.663,4.542-2.916c1.268-1.254,2.246-2.761,2.938-4.521c0.689-1.761,1.034-3.726,1.034-5.895V57.583z"/>
		<path fill="#F68116" d="M503.554,68.315c0,3.689-0.643,7.084-1.924,10.184c-1.281,3.098-3.05,5.768-5.304,8.006
			c-2.252,2.24-4.93,3.993-8.027,5.262c-3.1,1.267-6.464,1.901-10.099,1.901h-29.663c-0.789,0-1.521-0.142-2.196-0.422
			c-0.677-0.282-1.261-0.67-1.754-1.163s-0.882-1.077-1.162-1.753c-0.281-0.677-0.423-1.409-0.423-2.197V38.61
			c0-0.761,0.142-1.479,0.423-2.155c0.28-0.675,0.669-1.268,1.162-1.773c0.493-0.508,1.077-0.902,1.754-1.185
			c0.675-0.28,1.407-0.422,2.196-0.422H478.2c3.635,0,6.999,0.634,10.099,1.901c3.098,1.268,5.775,3.021,8.027,5.261
			c2.254,2.239,4.022,4.916,5.304,8.028s1.924,6.5,1.924,10.162V68.315z M492.566,58.427c0-2.141-0.346-4.099-1.035-5.873
			c-0.689-1.775-1.668-3.289-2.938-4.543c-1.266-1.253-2.781-2.225-4.541-2.916c-1.761-0.689-3.713-1.034-5.853-1.034h-24.212v38.62
			H478.2c2.14,0,4.092-0.345,5.853-1.035c1.76-0.69,3.275-1.663,4.541-2.915c1.27-1.255,2.248-2.761,2.938-4.522
			c0.689-1.76,1.035-3.725,1.035-5.894V58.427z"/>
		<path fill="#F68116" d="M569.088,93.667h-39.633c-1.521,0-3.184-0.269-4.986-0.803c-1.803-0.536-3.473-1.416-5.008-2.641
			c-1.535-1.226-2.816-2.817-3.846-4.775c-1.027-1.958-1.541-4.359-1.541-7.204V38.61c0-0.761,0.141-1.479,0.422-2.155
			c0.281-0.675,0.67-1.268,1.162-1.773c0.492-0.508,1.078-0.902,1.754-1.185c0.676-0.28,1.408-0.422,2.197-0.422h49.479v10.986
			h-44.027v34.184c0,1.437,0.379,2.535,1.141,3.295c0.76,0.761,1.873,1.142,3.338,1.142h39.549V93.667z M564.145,68.906h-34.689
			v-11.07h34.689V68.906z"/>
		<path fill="#F68116" d="M640.244,88.977c0,0.788-0.148,1.521-0.443,2.197c-0.295,0.676-0.689,1.26-1.184,1.753
			c-0.492,0.493-1.078,0.881-1.752,1.162c-0.678,0.282-1.396,0.423-2.156,0.423c-0.676,0-1.359-0.127-2.049-0.381
			c-0.691-0.253-1.305-0.661-1.838-1.226l-40.141-41.915v42.677h-10.986V37.765c0-1.128,0.316-2.148,0.951-3.063
			c0.633-0.917,1.443-1.6,2.428-2.05c1.043-0.423,2.113-0.528,3.213-0.317c1.098,0.211,2.041,0.725,2.83,1.542l40.141,41.873V33.075
			h10.986V88.977z"/>
		<path fill="#F68116" d="M711.232,75.836c0,2.169-0.275,4.12-0.824,5.852c-0.551,1.732-1.275,3.261-2.176,4.584
			c-0.902,1.324-1.959,2.451-3.17,3.381c-1.211,0.931-2.465,1.69-3.76,2.281c-1.297,0.592-2.613,1.029-3.951,1.312
			c-1.338,0.28-2.6,0.422-3.783,0.422h-42.381V82.681h42.381c2.113,0,3.754-0.62,4.924-1.859s1.754-2.902,1.754-4.985
			c0-1.015-0.156-1.944-0.465-2.789c-0.311-0.845-0.754-1.577-1.332-2.197s-1.281-1.099-2.113-1.437
			c-0.83-0.338-1.752-0.508-2.768-0.508h-25.268c-1.773,0-3.689-0.316-5.746-0.95s-3.965-1.654-5.727-3.064
			c-1.76-1.407-3.225-3.253-4.393-5.535c-1.17-2.281-1.754-5.07-1.754-8.365c0-3.296,0.584-6.078,1.754-8.345
			c1.168-2.27,2.633-4.113,4.393-5.535c1.762-1.424,3.67-2.451,5.727-3.086c2.057-0.634,3.973-0.95,5.746-0.95h37.396v10.986
			h-37.396c-2.084,0-3.711,0.634-4.879,1.901c-1.17,1.268-1.756,2.943-1.756,5.028c0,2.112,0.586,3.781,1.756,5.007
			c1.168,1.226,2.795,1.838,4.879,1.838h25.268h0.084c1.186,0.029,2.438,0.189,3.762,0.486c1.324,0.295,2.641,0.754,3.951,1.372
			c1.311,0.62,2.557,1.402,3.74,2.346s2.232,2.078,3.146,3.402c0.916,1.323,1.643,2.844,2.176,4.563
			C710.965,71.723,711.232,73.667,711.232,75.836z"/>
	</g>
	<g>
		<path fill="#656565" d="M304.817,112.501h4.813v24.596c0,2.817,0.722,5,2.165,6.551c1.444,1.551,3.432,2.326,5.963,2.326
			c2.638,0,4.705-0.757,6.202-2.272c1.497-1.515,2.246-3.717,2.246-6.604c0-2.744-0.812-4.909-2.433-6.496
			c-1.623-1.586-3.752-2.38-6.391-2.38c-2.245,0-4.188,0.643-5.828,1.926v-4.813c1.961-1.07,4.082-1.604,6.363-1.604
			c3.777,0,6.906,1.222,9.384,3.663c2.478,2.442,3.717,5.678,3.717,9.704c0,4.243-1.293,7.532-3.877,9.866
			c-2.585,2.335-5.838,3.502-9.759,3.502c-3.742,0-6.773-1.211-9.09-3.636c-2.317-2.424-3.476-5.668-3.476-9.732V112.501z"/>
		<path fill="#656565" d="M335.83,149.931v-14.598c0-4.1,0.766-6.934,2.299-8.502c0.748-0.784,1.658-1.372,2.727-1.765
			c1.07-0.392,2.006-0.624,2.808-0.695s1.898-0.107,3.288-0.107h4.706v4.492h-5.668c-0.714,0-1.266,0.019-1.657,0.054
			c-0.394,0.035-0.855,0.16-1.391,0.374s-0.998,0.553-1.391,1.016c-0.678,0.855-1.016,2.567-1.016,5.134v14.598H335.83z"/>
		<path fill="#656565" d="M362.084,149.931h-4.706v-21.175h-4.384l2.139-4.492h6.951V149.931z M357.164,118.917
			c-0.463-0.605-0.695-1.265-0.695-1.978s0.232-1.364,0.695-1.952c0.463-0.589,1.177-0.882,2.139-0.882
			c0.963,0,1.676,0.293,2.139,0.882c0.463,0.588,0.695,1.239,0.695,1.952s-0.232,1.362-0.695,1.951
			c-0.463,0.588-1.176,0.882-2.139,0.882C358.341,119.773,357.627,119.489,357.164,118.917z"/>
		<path fill="#656565" d="M369.516,124.264h9.251c3.956,0,6.79,0.589,8.501,1.765c1.533,1.034,2.504,2.272,2.914,3.717
			c0.41,1.443,0.615,3.342,0.615,5.694v14.491h-4.705v-14.438c0-0.642-0.018-1.185-0.053-1.631
			c-0.036-0.445-0.161-1.016-0.375-1.711s-0.518-1.266-0.909-1.712c-0.393-0.445-0.962-0.837-1.711-1.176
			c-0.748-0.339-1.657-0.508-2.727-0.508h-6.097v21.175h-4.705V124.264z"/>
		<path fill="#656565" d="M409.138,149.931c-3.494,0-6.489-1.176-8.983-3.529c-2.495-2.353-3.743-5.364-3.743-9.037
			c0-3.706,1.257-6.817,3.771-9.33c2.513-2.513,5.622-3.771,9.33-3.771h12.565v24.918c0,1.604-0.206,3.048-0.614,4.332
			c-0.41,1.282-0.99,2.369-1.738,3.261c-0.748,0.891-1.426,1.586-2.031,2.086c-0.607,0.498-1.338,1.016-2.193,1.551
			c-2.211,1.141-4.901,1.71-8.074,1.71h-5.988v-4.491h5.508c3.137,0,5.365-0.392,6.684-1.176c2.424-1.355,3.637-3.602,3.637-6.738
			v-20.96h-7.754c-2.531,0-4.545,0.784-6.042,2.353c-1.497,1.569-2.246,3.655-2.246,6.256c0,2.496,0.775,4.466,2.326,5.909
			c1.55,1.443,3.413,2.165,5.588,2.165c2.353,0,4.419-0.642,6.202-1.924v4.812C413.416,149.396,411.348,149.931,409.138,149.931z"/>
		<path fill="#656565" d="M446.566,124.264v4.492h-9.464c-1.034,0-1.925,0.196-2.674,0.589c-0.749,0.392-1.122,0.944-1.122,1.657
			c0,0.428,0.088,0.811,0.267,1.149c0.178,0.339,0.382,0.615,0.615,0.829c0.231,0.213,0.588,0.437,1.069,0.668
			c0.48,0.232,0.855,0.393,1.123,0.48c0.267,0.09,1.398,0.456,3.395,1.097c1.996,0.643,3.477,1.177,4.438,1.604
			s1.702,1.008,2.22,1.737c0.516,0.731,0.846,1.444,0.988,2.139c0.143,0.695,0.215,1.382,0.215,2.06c0,4.776-3.281,7.165-9.84,7.165
			h-9.25v-4.492h9.25c3.351,0,5.027-0.89,5.027-2.673c0-0.855-0.491-1.569-1.471-2.139c-0.981-0.57-2.176-1.052-3.582-1.444
			c-1.409-0.392-2.817-0.847-4.225-1.364c-1.408-0.516-2.603-1.354-3.582-2.513c-0.981-1.157-1.472-2.593-1.472-4.304
			c0-2.174,0.837-3.841,2.513-4.999c1.676-1.159,3.707-1.739,6.097-1.739H446.566z"/>
		<path fill="#656565" d="M472.392,149.931h-4.705v-21.175h-4.385l2.139-4.492h6.951V149.931z M467.473,118.917
			c-0.464-0.605-0.695-1.265-0.695-1.978s0.231-1.364,0.695-1.952c0.462-0.589,1.177-0.882,2.139-0.882s1.675,0.293,2.139,0.882
			c0.463,0.588,0.695,1.239,0.695,1.952s-0.232,1.362-0.695,1.951c-0.464,0.588-1.177,0.882-2.139,0.882
			S467.935,119.489,467.473,118.917z"/>
		<path fill="#656565" d="M476.883,128.756l9.572-9.571v5.079h7.218v4.492h-7.218v11.015c0,1.248,0.204,2.282,0.613,3.102
			c0.41,0.821,1.008,1.4,1.792,1.737c0.784,0.34,1.524,0.563,2.22,0.669c0.694,0.107,1.559,0.16,2.593,0.16v4.492
			c-4.1,0-7.13-0.784-9.09-2.354c-1.961-1.567-2.941-4.171-2.941-7.807v-11.015H476.883z"/>
		<path fill="#656565" d="M508.536,128.756l9.57-9.571v5.079h7.22v4.492h-7.22v11.015c0,1.248,0.205,2.282,0.615,3.102
			c0.41,0.821,1.008,1.4,1.792,1.737c0.783,0.34,1.523,0.563,2.219,0.669c0.695,0.107,1.56,0.16,2.594,0.16v4.492
			c-4.1,0-7.13-0.784-9.091-2.354c-1.961-1.567-2.94-4.171-2.94-7.807v-11.015H508.536z"/>
		<path fill="#656565" d="M533.346,127.633c2.496-2.602,5.615-3.903,9.358-3.903c1.818,0,3.52,0.348,5.106,1.043
			c1.586,0.695,2.976,1.649,4.171,2.86c1.194,1.212,2.13,2.629,2.807,4.251s1.017,3.36,1.017,5.213c0,1.854-0.331,3.593-0.99,5.215
			s-1.577,3.039-2.754,4.25c-1.176,1.212-2.565,2.166-4.17,2.861c-1.604,0.694-3.333,1.042-5.187,1.042
			c-1.89,0-3.628-0.348-5.213-1.042c-1.587-0.695-2.968-1.649-4.146-2.861c-1.176-1.211-2.094-2.628-2.753-4.25
			c-0.66-1.622-0.989-3.36-0.989-5.215C529.604,133.32,530.851,130.165,533.346,127.633z M542.704,128.221
			c-2.496,0-4.501,0.821-6.016,2.46c-1.516,1.641-2.273,3.779-2.273,6.416c0,2.639,0.758,4.778,2.273,6.418
			c1.515,1.639,3.52,2.459,6.016,2.459c2.53,0,4.545-0.829,6.042-2.486c1.498-1.657,2.245-3.787,2.245-6.391
			c0-2.601-0.747-4.731-2.245-6.39C547.249,129.05,545.234,128.221,542.704,128.221z"/>
		<path fill="#656565" d="M573.343,149.931c-3.495,0-6.489-1.176-8.984-3.529c-2.495-2.353-3.743-5.364-3.743-9.037
			c0-3.706,1.257-6.817,3.771-9.33s5.623-3.771,9.33-3.771h12.566v24.918c0,1.604-0.206,3.048-0.615,4.332
			c-0.41,1.282-0.989,2.369-1.737,3.261c-0.749,0.891-1.427,1.586-2.032,2.086c-0.607,0.498-1.337,1.016-2.192,1.551
			c-2.211,1.141-4.902,1.71-8.074,1.71h-5.989v-4.491h5.508c3.137,0,5.365-0.392,6.685-1.176c2.423-1.355,3.635-3.602,3.635-6.738
			v-20.96h-7.753c-2.531,0-4.544,0.784-6.042,2.353c-1.497,1.569-2.246,3.655-2.246,6.256c0,2.496,0.775,4.466,2.326,5.909
			s3.413,2.165,5.589,2.165c2.352,0,4.419-0.642,6.201-1.924v4.812C577.62,149.396,575.552,149.931,573.343,149.931z"/>
		<path fill="#656565" d="M605.531,123.73c6.06,0.25,9.09,2.764,9.09,7.539c0,5.954-3.902,8.93-11.71,8.93h-2.191v-4.117h2.565
			c2.388,0,4.046-0.365,4.973-1.096s1.392-1.951,1.392-3.663c0-1.104-0.411-1.933-1.23-2.486c-0.82-0.552-1.871-0.828-3.155-0.828
			c-2.531,0-4.519,0.892-5.962,2.673c-1.443,1.783-2.165,3.922-2.165,6.416c0,2.639,0.774,4.778,2.325,6.418
			c1.551,1.639,3.574,2.459,6.069,2.459c2.245,0,4.082-0.553,5.508-1.657l3.208,3.154c-2.459,1.996-5.366,2.994-8.716,2.994
			c-4.063,0-7.308-1.193-9.731-3.583c-2.424-2.387-3.637-5.471-3.637-9.25c0-4.206,1.194-7.61,3.583-10.213
			C598.135,124.818,601.396,123.588,605.531,123.73z"/>
		<path fill="#656565" d="M617.294,128.756l9.571-9.571v5.079h7.219v4.492h-7.219v11.015c0,1.248,0.205,2.282,0.615,3.102
			c0.41,0.821,1.007,1.4,1.792,1.737c0.782,0.34,1.523,0.563,2.218,0.669c0.695,0.107,1.56,0.16,2.594,0.16v4.492
			c-4.1,0-7.129-0.784-9.09-2.354c-1.961-1.567-2.941-4.171-2.941-7.807v-11.015H617.294z"/>
		<path fill="#656565" d="M643.869,112.501v11.763h4.545c3.957,0,6.791,0.589,8.503,1.765c1.531,1.034,2.503,2.272,2.913,3.717
			c0.41,1.443,0.615,3.342,0.615,5.694v14.491h-4.706v-14.438c0-0.642-0.018-1.185-0.053-1.631
			c-0.036-0.445-0.161-1.016-0.374-1.711c-0.214-0.695-0.518-1.266-0.909-1.712c-0.394-0.445-0.963-0.837-1.711-1.176
			c-0.749-0.339-1.658-0.508-2.728-0.508h-6.096v21.175h-4.705v-37.43H643.869z"/>
		<path fill="#656565" d="M679.426,123.73c6.06,0.25,9.09,2.764,9.09,7.539c0,5.954-3.902,8.93-11.71,8.93h-2.191v-4.117h2.565
			c2.389,0,4.047-0.365,4.974-1.096c0.926-0.73,1.391-1.951,1.391-3.663c0-1.104-0.411-1.933-1.23-2.486
			c-0.82-0.552-1.871-0.828-3.154-0.828c-2.532,0-4.519,0.892-5.962,2.673c-1.444,1.783-2.166,3.922-2.166,6.416
			c0,2.639,0.774,4.778,2.325,6.418c1.551,1.639,3.574,2.459,6.069,2.459c2.246,0,4.082-0.553,5.508-1.657l3.208,3.154
			c-2.459,1.996-5.365,2.994-8.716,2.994c-4.063,0-7.308-1.193-9.731-3.583c-2.424-2.387-3.636-5.471-3.636-9.25
			c0-4.206,1.193-7.61,3.583-10.213C672.029,124.818,675.29,123.588,679.426,123.73z"/>
		<path fill="#656565" d="M693.061,149.931v-14.598c0-4.1,0.766-6.934,2.3-8.502c0.748-0.784,1.657-1.372,2.727-1.765
			c1.069-0.392,2.005-0.624,2.807-0.695s1.898-0.107,3.289-0.107h4.705v4.492h-5.667c-0.714,0-1.267,0.019-1.659,0.054
			c-0.392,0.035-0.854,0.16-1.39,0.374c-0.534,0.214-0.998,0.553-1.39,1.016c-0.678,0.855-1.017,2.567-1.017,5.134v14.598H693.061z"
			/>
	</g>
</g>
<g>
	<path fill="#CCCAC9" d="M69.059,94.207c0.203-2.081-1.316-3.934-3.394-4.141l-18.158-1.8c-2.081-0.206-3.934,1.313-4.14,3.39
		l-0.884,8.933c-0.207,2.081,1.311,3.937,3.39,4.143l18.158,1.801c2.08,0.206,3.934-1.313,4.14-3.394L69.059,94.207"/>
	<path fill="#CCCAC9" d="M71.861,62.784c0.207-2.077-1.313-3.931-3.391-4.137l-18.157-1.801c-2.081-0.209-3.933,1.31-4.14,3.39
		l-0.887,8.933c-0.207,2.08,1.313,3.934,3.393,4.139l18.159,1.805c2.076,0.203,3.934-1.313,4.139-3.395L71.861,62.784"/>
	<path fill="#CCCAC9" d="M92.063,120.01c0.207-2.077-1.313-3.931-3.391-4.136l-18.159-1.805c-2.078-0.206-3.931,1.313-4.138,3.395
		l-0.888,8.932c-0.206,2.081,1.313,3.932,3.392,4.14l18.156,1.8c2.084,0.207,3.935-1.313,4.141-3.39L92.063,120.01"/>
	<path fill="#8D8D8D" d="M124.117,83.03c0.311-3.146-1.986-5.946-5.132-6.26l-27.46-2.725c-3.146-0.311-5.949,1.984-6.26,5.13
		l-1.342,13.51c-0.313,3.146,1.984,5.95,5.13,6.262l27.463,2.727c3.146,0.31,5.946-1.986,6.259-5.132L124.117,83.03"/>
	<path fill="#CCCAC9" d="M102.723,46.517c0.207-2.081-1.313-3.934-3.393-4.141l-18.157-1.803c-2.077-0.207-3.931,1.313-4.138,3.393
		l-0.888,8.932c-0.206,2.081,1.313,3.934,3.392,4.141l18.157,1.801c2.079,0.208,3.933-1.31,4.14-3.391L102.723,46.517"/>
	<path fill="#CCCAC9" d="M34.923,75.65c0.172-1.741-1.101-3.292-2.842-3.466l-15.202-1.509c-1.744-0.172-3.294,1.098-3.466,2.84
		l-0.745,7.481c-0.171,1.742,1.099,3.294,2.84,3.467l15.205,1.509c1.741,0.171,3.294-1.1,3.467-2.84L34.923,75.65"/>
	<path fill="#8D8D8D" d="M140.335,98c0.026,3.573,2.245,6.063,5.653,6.349c10.181,0.317,20.283,0.32,30.15-0.026
		c0.553-0.02,1.105-0.038,1.654-0.059c2.631-0.175,5.467-2.251,5.482-6.39c-0.123-2.9-0.328-5.779-0.604-8.629
		c-2.313,0.125-4.668,0.227-7.068,0.311c-1.625,0.057-3.256,0.104-4.893,0.141c-3.234-0.103-5.6-2.407-6.027-5.87
		c-0.119-1.559-0.258-3.104-0.412-4.634c-5.967,0.058-12-0.014-18.063-0.201c-3.249,0.07-5.38,2.237-5.563,5.656
		C140.622,89.021,140.518,93.487,140.335,98"/>
	<path fill="#F89A37" d="M171.544,89.257c1.636-0.039,3.269-0.085,4.894-0.14c2.4-0.083,4.756-0.189,7.066-0.312
		c4.775-0.253,9.357-0.59,13.744-1.002c2.277-0.29,4.449-2.422,3.836-6.426c-0.912-4.642-2.074-9.168-3.459-13.52
		c-1.125-3.103-3.578-5.046-6.248-4.957c-5.873,0.556-12.141,0.956-18.781,1.188c-1.465,0.05-2.937,0.092-4.414,0.126
		c-2.918,0.224-4.526,2.347-4.197,5.542c0.438,2.929,0.812,5.933,1.119,8.995c0.154,1.532,0.293,3.077,0.413,4.632
		C165.947,86.851,168.313,89.153,171.544,89.257"/>
	<path fill="#414042" d="M203.994,118.676c0.168-3.529-1.648-5.737-4.627-5.623c-7.076,0.692-14.66,1.188-22.715,1.467
		c-1.289,0.046-2.584,0.083-3.882,0.118c-3.411,0.266-5.847,2.67-6.356,6.272c-0.039,0.421-0.08,0.835-0.122,1.253
		c-0.005,0.052-0.011,0.102-0.017,0.154c-0.445,4.386-1.025,8.565-1.723,12.512c-0.398,3.173,1.418,5.188,4.736,5.259
		c1.278-0.034,2.555-0.072,3.826-0.117c4.908-0.17,9.635-0.423,14.18-0.749c0.186-0.705,0.361-1.42,0.537-2.141
		c0.908-3.174,3.443-5.5,6.453-5.922c2.75-0.244,5.43-0.514,8.033-0.814c0.656-3.272,1.174-6.688,1.539-10.235
		c0.002-0.063,0.012-0.12,0.018-0.183C203.916,119.508,203.955,119.091,203.994,118.676"/>
	<path fill="#414042" d="M228.338,96.1c3.561-0.789,6.893-1.645,9.984-2.566c-0.271-2.344-0.631-4.675-1.074-6.983
		c-0.768-3.383-2.635-5.322-4.754-4.938c-5.646,1.509-12.01,2.809-19.053,3.879c-2.512,0.556-3.873,3.097-3.557,6.625
		c0.602,4.771,0.928,9.618,0.951,14.485c0.15,3.612,1.891,5.718,4.543,5.497c3.227-0.488,6.316-1.026,9.271-1.608
		c0.102-2.479,0.109-4.961,0.031-7.436C224.676,99.441,226.078,96.775,228.338,96.1"/>
	<path fill="#F89A37" d="M229.73,64.011c-1.309-2.934-2.766-5.776-4.344-8.527c-0.734-1.282-1.488-2.551-2.277-3.788
		c-1.871-2.752-4.309-4.315-6.209-3.98c-2.605,0.686-5.395,1.318-8.354,1.897c-2.516,0.494-5.15,0.947-7.912,1.36
		c-2.074,0.457-2.6,2.561-1.367,5.492c1.846,4.02,3.475,8.26,4.869,12.664c1.172,3.31,3.461,5.24,5.975,5.042
		c6.85-1.018,13.043-2.265,18.545-3.711C230.242,69.964,231.254,67.738,229.73,64.011"/>
	<path fill="#F68116" d="M249.195,96.109c-0.07-0.778-0.199-1.478-0.373-2.092c-0.596-2.088-1.744-3.183-3.125-2.807
		c-2.119,0.796-4.389,1.554-6.803,2.271c-3.096,0.921-6.424,1.777-9.984,2.566c-2.26,0.675-3.662,3.341-3.66,6.956
		c0.078,2.472,0.07,4.955-0.031,7.437c-0.08,1.963-0.219,3.93-0.416,5.889c-0.006,0.07-0.016,0.144-0.025,0.215
		c-0.033,0.346-0.072,0.697-0.109,1.04c-0.297,3.54,0.906,5.448,3.219,5.103c1.002-0.219,1.982-0.449,2.947-0.681
		c5.23-1.257,9.938-2.67,14.08-4.223c1.467-0.614,3.307-3.112,3.887-7.144c0.033-0.312,0.07-0.627,0.102-0.941
		c0.012-0.104,0.023-0.211,0.035-0.316C249.385,104.943,249.465,100.506,249.195,96.109"/>
	<path fill="#F89A37" d="M150.332,56.723c-0.654-4.025-1.42-7.826-2.283-11.347c-0.742-2.477-2.891-4.198-5.475-4.388
		c-6.168-0.162-12.383-0.491-18.582-0.958c-0.008,0-0.019,0-0.029-0.002c-0.049-0.003-0.102-0.008-0.15-0.011
		c-0.136-0.011-0.275-0.021-0.41-0.031c-0.016,0-0.033-0.002-0.051-0.002c-0.383-0.032-0.766-0.055-1.148-0.087
		c-0.169-0.013-0.336-0.023-0.503-0.039c-0.036-0.002-0.073-0.005-0.107-0.008c-2.553-0.089-4.319,1.386-4.61,3.845
		c-0.132,2.041-0.279,4.191-0.435,6.418c-0.034,0.481-0.065,0.961-0.103,1.449c-0.01,0.118-0.016,0.23-0.025,0.348
		c0,0.002,0,0.005,0,0.011c-0.029,0.419-0.063,0.856-0.094,1.284c-0.105,0.24-0.207,0.483-0.311,0.731
		c0.104-0.245,0.205-0.485,0.311-0.723c0,0.014-0.003,0.023-0.003,0.037c0,0.008,0,0.016,0,0.023
		c-0.003,0.002-0.003,0.008-0.003,0.011c-0.039,0.532-0.076,1.054-0.115,1.594c-0.07,2.997,1.807,5.189,4.782,5.589
		c8.321,0.678,16.68,1.138,24.968,1.354C148.338,61.818,150.725,60.223,150.332,56.723"/>
	<path fill="#F68116" d="M142.632,122.393c-0.822-1.801-2.537-2.982-4.862-3.203c-9.689-0.415-19.422-1.104-29.076-2.046
		c-2.324-0.104-4.248,0.821-5.43,2.482c-0.593,0.833-1.004,1.847-1.18,3.014c-0.23,2.296-0.452,4.531-0.664,6.705
		c-0.225,2.319-0.439,4.573-0.645,6.746c-0.117,3.076,1.939,5.289,5.367,5.775c9.412,0.914,18.906,1.587,28.355,1.994
		c2.816,0.06,6.014-1.441,6.803-4.923c0.159-0.95,0.316-1.921,0.467-2.903c0.518-3.339,0.984-6.844,1.399-10.51
		C143.238,124.351,143.045,123.293,142.632,122.393"/>
	<path fill="#F89A37" d="M194.094,36.691c-2.738-3.12-5.664-5.926-8.752-8.36c-2.52-1.888-5.156-2.592-6.646-2.451
		c-4.361,0.652-9.141,1.161-14.307,1.506c-1.771,0.206-2,1.375-0.623,3.212c1.916,2.391,3.717,5.109,5.4,8.1
		c0.109,0.193,0.219,0.384,0.326,0.578c1.467,2.451,3.951,4.017,6.33,3.988c3.428-0.229,6.717-0.517,9.871-0.854
		c2.908-0.313,5.701-0.668,8.367-1.068C195.729,41.033,196.273,39.335,194.094,36.691"/>
	<path fill="#F68116" d="M220.941,131.631c-0.23-1.59-1.301-2.451-3.025-2.253c-4.672,0.83-9.666,1.556-14.967,2.164
		c-2.605,0.3-5.283,0.57-8.037,0.814c-3.008,0.421-5.543,2.749-6.451,5.922c-0.174,0.72-0.352,1.433-0.541,2.138
		c-0.734,2.801-1.57,5.458-2.486,7.979c-0.201,0.562-0.408,1.128-0.619,1.676c-0.875,2.598,0.32,4.135,3.117,4.01
		c7.896-0.697,15.158-1.645,21.744-2.817c2.021-0.407,4.803-2.185,6.447-5.241c1.816-3.671,3.371-7.655,4.619-11.916
		C220.982,133.161,221.043,132.328,220.941,131.631"/>
	<path fill="#F89A37" d="M219.461,31.082c-3.605-2.918-7.449-5.516-11.498-7.737c-3.271-1.726-5.842-2.177-6.844-1.869
		c-2.705,1.162-5.887,2.208-9.518,3.127c-1.527,0.527,0.615,2.383,2.031,3.443c3.363,2.446,6.551,5.26,9.531,8.384
		c2.404,2.42,4.869,3.696,6.594,3.409c4.605-1.164,8.643-2.495,12.074-3.965C222.836,35.368,222.346,33.517,219.461,31.082"/>
	<path fill="#F89A37" d="M257.561,64.872c-0.641-1.626-1.334-3.231-2.074-4.811c-1.266-2.688-2.678-5.307-4.227-7.841
		c-1.807-2.822-3.738-4.323-4.805-3.733c-2.582,1.963-5.893,3.788-9.891,5.451c-1.307,0.717-1.225,2.944,0.197,5.975
		c0.039,0.079,0.074,0.154,0.113,0.235c2.15,4.194,3.99,8.58,5.48,13.1c1.195,3.355,2.939,5.141,4.553,4.66
		c2.91-1.208,5.482-2.498,7.721-3.854c1.09-0.662,2.1-1.337,3.023-2.03c0.068-0.052,0.141-0.099,0.207-0.151
		C258.723,71.13,258.898,68.483,257.561,64.872"/>
	<path fill="#F68116" d="M251.258,135.586c0.729-0.948,1.412-1.874,2.018-2.741c0.426-0.611,1.121-1.605,1.98-2.939
		c-0.859,1.334-1.553,2.329-1.98,2.939C252.67,133.712,251.986,134.638,251.258,135.586"/>
	<path fill="#F68116" d="M262.354,111.847c-0.115,0.031-0.264,0.104-0.352,0.184c-2.318,2.367-5.492,4.59-9.473,6.639
		c-1.691,1.031-3.266,4.216-4.172,6.853c-1.42,4.325-3.217,8.396-5.35,12.182c-1.557,2.848-1.289,3.273-1.109,3.555
		c0.33,0.047,0.33,0.047,0.688-0.11c0.527-0.273,1.037-0.548,1.531-0.825c3.055-1.706,5.543-3.529,7.428-5.459
		c0.451-0.47,2.215-2.62,4.355-6.201c1.217-2.062,2.326-4.203,3.328-6.409c0.893-1.963,1.703-3.98,2.416-6.049
		C262.871,112.523,262.482,112.017,262.354,111.847"/>
	<path fill="#F89A37" d="M186.139,17.341c-3.348-0.983-6.861-1.832-10.508-2.529c-2.962-0.532-5.909-0.61-7.518-0.451
		c-4.656,0.559-9.785,1.091-15.358,1.589c-1.9,0.204-2.007,0.664-0.292,1.258c2.364,0.765,4.648,1.661,6.836,2.67
		c0.141,0.065,0.285,0.128,0.426,0.196c1.885,0.82,4.771,1.232,7.35,1.052c3.697-0.332,7.238-0.673,10.625-1.028
		c3.121-0.323,6.113-0.658,8.961-1C188.432,18.86,188.824,18.182,186.139,17.341"/>
	<path fill="#F68116" d="M162.786,173.868c3.317-0.742,6.806-1.433,10.429-2.065c2.941-0.499,5.875-0.783,7.479-0.84
		c4.648-0.131,9.768-0.308,15.324-0.543c1.898-0.065,2.01,0.141,0.309,0.563c-2.344,0.559-4.605,1.169-6.766,1.825
		c-0.141,0.044-0.283,0.086-0.42,0.128c-1.867,0.543-4.736,0.976-7.311,1.109c-3.686,0.154-7.217,0.29-10.598,0.407
		c-3.113,0.11-6.098,0.204-8.942,0.282C160.523,174.774,160.123,174.487,162.786,173.868"/>
	<path fill="#F68116" d="M217.85,164.442c1.014-0.635,1.98-1.264,2.85-1.861c0.609-0.423,1.613-1.112,2.883-2.062
		c-1.27,0.95-2.27,1.639-2.883,2.062C219.83,163.179,218.863,163.808,217.85,164.442"/>
	<path fill="#F68116" d="M235.998,146.032c-0.117-0.01-0.283,0.002-0.393,0.044c-3.002,1.41-6.752,2.383-11.201,2.91
		c-1.941,0.374-4.527,2.806-6.301,4.96c-2.842,3.555-5.949,6.742-9.27,9.543c-2.459,2.122-2.354,2.616-2.283,2.944
		c0.293,0.157,0.293,0.157,0.682,0.133c0.59-0.068,1.16-0.149,1.723-0.235c3.459-0.53,6.426-1.371,8.867-2.517
		c0.586-0.284,2.994-1.681,6.252-4.283c1.861-1.509,3.646-3.125,5.355-4.842c1.525-1.527,2.988-3.135,4.381-4.824
		C236.248,146.846,236.061,146.232,235.998,146.032"/>
</g>
</svg>
